<?xml version="1.0" encoding="utf-8"?>
<!-- Generator: Adobe Illustrator 15.1.0, SVG Export Plug-In . SVG Version: 6.00 Build 0)  -->
<!DOCTYPE svg PUBLIC "-//W3C//DTD SVG 1.1//EN" "http://www.w3.org/Graphics/SVG/1.1/DTD/svg11.dtd">
<svg version="1.1" id="Layer_1" xmlns="http://www.w3.org/2000/svg" xmlns:xlink="http://www.w3.org/1999/xlink" x="0px" y="0px"
	 width="922.262px" height="856.442px" viewBox="0 0 922.262 856.442" enable-background="new 0 0 922.262 856.442"
	 xml:space="preserve">
<path fill="#FFFFFF" stroke="#E3E0CC" stroke-miterlimit="10" d="M115.705,427.869c-18.275-10.584-39.407-26.139-39.397-48.892
	c0.004-8.57,0.324-16.961,0.69-25.458c0.88-20.462-16.302-34.199-19.864-54.635c-2.216-12.715-3.391-27.741-3.62-40.643
	c6.595-2.333,12.884-6.192,19.903-7.271c13.234-2.036,22.172,5.016,33.871,9.712c13.072,5.248,23.711,12.696,37.067,14.728
	c12.521,1.905,26.946,4.454,39.095,9.795c6.696,2.944,15.324,7.458,21.046,12.381c6.38,5.489,10.271,13.493,16.601,19.057
	c-11.969-12.688-31.743-32.583-13.608-48.404c2.844-2.48,7.225-2.767,10.135-4.941c5.821-4.35,2.482-2.709,6.137-9.368
	c1.528-2.784-0.628-3.012,2.258-5.383c2.57-2.111,13.768-3.995,16.751-3.508c18.056,2.946,26.431,27.775,36.155,39.351
	c6.414,7.635,15.684,13.181,23.502,20.299c12.979,11.815,32.051,26.146,50.886,24.879c6.878-0.463,13.317-2.425,20.608-1.717
	c8.39,0.815,14.987,5.44,22.953,7.618c26.266,7.181,58.922,1.303,84.605-6.519c12.061-3.673,26.625-7.758,38.08-13.275
	c16.729-8.058,25.831-19.971,33.721-36.954c8.431-18.146,13.963-46.431,10.678-66.6c-1.932-11.855-8.548-25.451-12.77-36.83
	c-7.355-19.827-18.484-39.505-13.193-61.541c2.686-11.188,10.14-22.45,15.6-32.562c16.632-30.798,50.453-37.808,83.039-38.562
	c22.388-0.518,40.975,5.022,59.455,16.253c6.805,4.136,19.851,6.286,24.697,12.479c7.632,9.752,2.399,22.43,7.155,31.92
	c2.905,5.797,13.671,9.886,18.352,13.729c11.705,9.61,22.072,19.168,35.306,27.125c7.247,4.358,8.799,6.928,14.207,13.424
	c5.429,6.521,9.121,6.242,16.885,7.975c7.266,1.622,12.441,5.915,7.948,13.977c-3.742,6.715-12.427,4.259-17.346,8.977
	c2.483,2.929,3.569,6.62,3.321,10.574c-21.663,0.954-43.466,3.11-65.072,4.219c-14.373,0.738-27.935,2.561-38.949,12.478
	c-26.148,23.543-2.324,78.729,0.596,106.81c2.483,23.884,5.201,47.82,5.982,71.858c0.677,20.822,4.754,35.808-6.649,53.793
	c-15.619,24.636-35.365,46.208-57.281,65.419c-15.915,13.951-27.219,26.18-46.833,34.907
	c-36.87,16.406-74.488,16.921-113.771,17.909c-25.882,0.651-54.005,7.771-79.685,3.124c-18.71-3.387-37.445-6.263-56.368-8.919
	c-8.497-1.192-16.958-5.155-24.816-6.33c-7.461-1.115-18.875,3.499-26.301,7.065c-5.886,2.826-8.909,6.584-15.362,8.295
	c-16.474,4.367-35.575-1.186-52.636,1.157c-17.503,2.403-37.012,4.966-53.924,9.336c-9.173,2.37-14.958,6.147-24.57,5.847
	c0.392-20.56-6.22-47.743-32.666-46.711c-0.454-14.469,14.814-19.701,26.603-21.282c13.546-1.816,26.378-4.919,40.396,0.784
	c10.084,4.102,14.571,10.636,26.335,11.685c13.767,1.228,27.455,1.461,41.255,1.463c8.245,0.001,13.967-0.22,20.883-3.244
	c-22.323-4.384-46.186-18.22-67.133-27.202c-10.65-4.567-22.267-6.575-31.924-12.931c-5.753-3.786-9.822-8.497-15.577-12.36"/>
<path fill="#EE2E2D" stroke="#000000" stroke-miterlimit="10" d="M628,103.279c1.442-4.744,5.342-8.929,10.436-9.855
	c9.104-1.655,8.314,3.583,12.314,8.811c6.348,8.298,20.213,7.98,24.704,17.274c-11.015,1.575-23.061-0.745-34.339,1.168
	c-4.018,0.682-4.727,3.955-9.713,0.45c-3.491-2.455-1.401-5.136-3.503-7.829c-3.194-4.095-10.862-4.696-11.291-9.878
	c3.388-0.524,3.975-1.416,6.489,0.799c1.545-0.393,0.103-1.046,0.804-1.759"/>
<path stroke="#EE2E2D" stroke-miterlimit="10" d="M635.5,99.942c-0.701,3.929-2.799,17.55,4.525,15.998
	c3.785-0.802,5.013-9.612,6.036-12.998c-0.505-0.674-1.143-1.146-1.937-1.462c-2.43,3.133-4.14,6.357-5.514,9.959
	c-0.668-3.761-0.064-9.77,0.824-13.422c-0.867-0.088-2.059-0.269-2.936-0.076"/>
<path fill="#FEEA3D" stroke="#000000" stroke-miterlimit="10" d="M726.5,103.442c-6.886-0.64-16.181,3.514-21.475,6.879
	c-6.891,4.38-9.238,14.017-16.041,19.065c-10.662,7.912-22.438,13.894-33.469,21.056c-4.709,3.058-9.877,7.295-5.511,12.763
	c4.03,5.048,12.948,4.562,17.118,9.192c10.169,11.292,6.867,33.028,23.402,38.168c6.754,2.1,13.552,2.854,19.975-0.248
	c8.537-4.124,14.694-6.946,24.492-7.374c16.083-0.703,32.035-1.632,48.045-2.476c7.351-0.388,21.107,0.506,26.011-6.528
	c-1.818-2.302-7.764-3.128-4.483-6.398c2.961-2.952,11.091-0.336,14.933-3.951c3.114-2.93,4.184-11.555,2.376-15.525
	c-2.88-6.325-8.56-6.037-14.373-7.125c-7.271-1.36-11.293-5.688-16.039-11.006c-6.663-7.464-14.336-15.248-22.973-20.101
	c-10.912-6.133-20.946-11.82-28.988-21.391"/>
<path stroke="#EE2E2D" stroke-miterlimit="10" d="M715,148.942c-1.95-0.362-3.185-1.869-2.936-3.924
	c3.748-0.194,7.507-0.723,10.408,1.415c3.542,2.61,4.212,5.902,8.862,7.434c-2.78-0.864-7.441-5.208-9.848-6.9
	c-1.902-1.338-12.231-7.896-10.987-0.024"/>
<path fill="#736C14" stroke="#000000" stroke-miterlimit="10" d="M796,185.942c-11.731,0.222-23.767-0.013-35.425,0
	c-14.089,0.016-26.224-4.617-38.983-10.397c-11.167-5.058-22.531-7.7-34.104-10.603c-5.356-1.344-11.906-5.29-17.413-4.924
	c-0.062,0.642-0.015,1.216,0,1.849c9.183-0.385,19.797,6.083,28.524,8.562c10.998,3.124,21.978,4.328,32.887,8.513
	c9.977,3.827,20.718,7.329,31.514,8.012c12.117,0.766,24.014-0.046,35.5,1.988"/>
<path fill="#F78F27" stroke="#000000" stroke-miterlimit="10" d="M222.095,532.529c-14.312-14.218-35.501-18.945-54.665-20.999
	c-13.05-1.398-52.585-7.997-60.979,3.005c2.404,2.469,3.445,6.749,6.334,9.034c-8.378,3.946-27.345,7.081-26.917,20.697
	c13.379,2.971,19.945,3.877,32.398-1.654c13.629-6.054,20.437-12.778,36.297-13.083c27.961-0.537,67.479,20.053,93.03,9"/>
<path fill="#F78F27" stroke="#000000" stroke-miterlimit="10" d="M228.095,537.029c-17.329,1.538-32.4-10.251-47.925-16.464
	c-16.88-6.756-41.549-11.935-60.139-7.57c-11.489,2.698-18.071,12.652-26.523,19.945c-3.597,3.104-15.479,7.318-12.267,14.249
	c2.832,6.111,39.431,6.959,47.774,6.565c1.88,13.254-11.778,41.368-25.147,45.033c-6.512,22.746,34.812-0.084,41.774-2.971
	c22.366-9.273,41.536-13.74,66.616-15.326c20.184-1.275,52.255,10.115,69.535-4.841c9.566-8.279,7.81-19.673,22.184-22.133
	c-12.431-10.613-38.135-20.606-53.349-25.488c-20.066-6.438-47.941,9.98-64.532,1.5"/>
<path fill="#BFE2CF" d="M201.096,328.54c-16.889-6.098-28.316-15.595-33.076,6.034c-1.03,4.684,1.063,10.135,0.107,14.853
	c-1.344,6.635-9.944,15.896-10.101,21.668c-0.459,16.952,27.515,18.475,32.197,32.377c3.872,11.495-3.212,11.951-3.571,20.694
	c-0.792,19.266,21.607,26.462,32.742,39.443c44.872,52.31,125.719,63.01,189.856,71.538c30.184,4.014,53.285-3.086,84.08,3.16
	c15.989,3.243,55.742,10.294,68.758-0.979c-28.671-1.94-57.348-1.737-85.942-3.264c-26.534-1.418-52.223-3.131-78.643-7.201
	c-26.677-4.111-52.62-13.725-79.828-15.125c-19.004-0.979-36.399-2.972-54.912-8.146c-32.932-9.206-45.319-32.77-60.536-60.726
	c-7.151-13.137-30.104-29.354-13.084-43.572c-10.567-17.494-33.36-15.538-28.36-34.752c0.541-2.081,7.312-2.262,8.575-4.844
	c1.376-2.813-0.471-6.858,0.24-9.827c1.656-6.912-1.699-10.933,3-16.833"/>
<path d="M631,93.442c0,10.291,0.871,20.329,0.488,30.552c-0.307,8.191,2.178,9.205,10.923,8.373
	c2.782-9.717,7.146-19.373,10.114-29.177c0.533-1.762,5.438-16.939-2.161-12.906c-1.846,0.98-3.738,8.285-4.753,10.282
	c-1.201,2.363-2.799,5.052-4.611,6.937c-3.976-3.706-0.042-12.335-0.687-16.996c-2.983-0.039-5.872-0.288-8.813-0.564"/>
<path d="M796.5,185.942c2.2-0.381,4.585-0.812,6.95-0.424c0.155,0.957-0.076,2.512-0.477,3.351
	c-3.129,0.167-6.323,0.074-9.474,0.074"/>
<path fill="#BE1E2D" stroke="#000000" stroke-width="4" stroke-miterlimit="10" d="M719,66.442
	c-9.256-0.927-21.244,2.959-30.996,4.023c-15.868,1.73-30.829,7.635-46.253,11.952c-28.231,7.901-57.028,14.667-81.682,29.025
	c-8.928,5.2-21.124,13.621-30.922,15.904c-5.782-23.912-22.592-42.996-25.171-68.705c-2.543-25.35,6.15-35.93,30.02-43.092
	c7.559-2.268,15.605-5.577,23.227-7.884c3.631-1.1,8.091-0.346,11.552-2.472c3.522-2.164,5.104-7.122,9.003-10.021
	c5.081-3.78,11.694-4.771,18.397-3.729c2.37,0.368,5.375-0.742,7.619,0.18c2.526,1.038-0.179,5.268,1.916,6.114
	c13.444,5.43,35.39-3.953,49.429-6.071c21.946-3.312,31.674,11.148,41.162,29.324c7.705,14.759,18.675,29.29,22.751,45.151
	c0.348-3.011,0.021-6.562-0.226-9.523c-7.555-5.665-48.261-11.892-43.72,5.674c7.882,0.152,14.4,1.23,21.894-0.29
	c4.827-0.979,8.986-3.301,14.797-2.459c0.296,1.604,2.138,5.139,2.203,5.9"/>
<path fill="#D4278D" stroke="#000000" stroke-width="4" stroke-miterlimit="10" d="M519,107.442
	c-16.656,15.615-46.772,18.721-65.996,31.223c-12.339,8.023-25.113,38.6,0.273,33.826c13.107-2.465,23.04-16.605,35.647-21.319
	c11.866-4.436,23.406-6.851,34.134-12.902c11.54-6.509,22.588-11.923,34.935-17.075c7.203-3.005,21.832-7.526,18.855-17.601
	c-10.345-0.536-20.929-0.488-30.849,1.82c-9.495,2.209-20.71,5.971-30,3.028"/>
<path fill="#EFEDDC" d="M677,202.442c-1.543,13.948,2.466,30.576,3.777,44.497c2.505,26.578-0.442,53.873-3,80.154
	c-2.772,28.494-12.76,56.06-19.658,83.732c-2.746,11.013-4.922,24.556-9.998,34.868c-5.237,10.639-13.817,18.43-20.918,27.591
	c-11.351,14.643-20.085,31.849-30.888,47.018c-8.748,12.283-20.716,40.034-39.323,40.431c23.505-6.803,41.517-12.606,63.227-24.536
	c11.147-6.124,22.94-12.884,31.785-22.176c11.459-12.04,18.266-27.754,28.516-40.847c16.305-20.826,33.202-39.671,33.48-67.954
	c0.276-28.108-7.574-53.741-13.777-80.777c-4.802-20.926-6.453-43.04-8.445-64c-0.92-9.684-3.914-20.699,0.251-29.972
	c3.648-8.122,11.337-9.771,14.844-18.877c-7.589-0.384-15.289,0.806-21.872-3.151"/>
</svg>
